<svg width="24" height="24" viewBox="0 0 24 24" fill="none" xmlns="http://www.w3.org/2000/svg">
<path fill-rule="evenodd" clip-rule="evenodd" d="M17.5374 1.74301H7.5352C7.14637 1.74301 6.81118 1.90391 6.56984 2.13184C6.15368 2.54799 6.1593 2.98523 6.1659 3.49966C6.16674 3.56533 6.1676 3.63226 6.1676 3.70055H4.47822C3.86146 3.70055 3.35196 4.21005 3.35196 4.82681V5.99329C3.35196 6.61005 3.86146 7.10614 4.47822 7.10614H6.1676V8.12514H4.47822C3.86146 8.12514 3.35196 8.63464 3.35196 9.2514V10.4045C3.35196 11.0212 3.86146 11.5307 4.47822 11.5307H6.1676V12.5497H4.47822C3.86146 12.5497 3.35196 13.0592 3.35196 13.676V14.8425C3.35196 15.4726 3.86146 15.9687 4.47822 15.9687H6.1676V17.0011H4.47822C3.86146 17.0011 3.35196 17.4972 3.35196 18.114V19.267C3.35196 19.8972 3.86146 20.3933 4.47822 20.3933H6.1676V20.9967C6.1676 21.7475 6.78436 22.3643 7.5352 22.3643H17.5374C17.9129 22.3643 18.248 22.2168 18.5028 21.962C18.9189 21.5459 18.9133 21.1086 18.9067 20.5942C18.9059 20.5285 18.905 20.4616 18.905 20.3933H20.5944C21.2246 20.3933 21.7207 19.8838 21.7207 19.267V18.114C21.7207 17.4972 21.2112 17.0011 20.5944 17.0011H18.905V15.9687H20.5944C21.2246 15.9687 21.7207 15.4592 21.7207 14.8425V13.6894C21.7207 13.0592 21.2112 12.5631 20.5944 12.5631H18.905V11.5307H20.5944C21.2246 11.5307 21.7207 11.0346 21.7207 10.4179V9.2648C21.7207 8.64804 21.2112 8.13855 20.5944 8.13855H18.905V7.11955H20.5944C21.2246 7.11955 21.7207 6.61005 21.7207 5.99329V4.84022C21.7207 4.22346 21.2112 3.71396 20.5944 3.71396H18.905V3.11061C18.905 2.35977 18.2883 1.74301 17.5374 1.74301ZM15.2581 4.51843H10.1229C9.65364 4.51843 9.26481 4.90726 9.26481 5.37653V18.6637C9.26481 19.133 9.65364 19.5218 10.1229 19.5218H15.2581C15.7274 19.5218 16.1162 19.133 16.1162 18.6637V5.37653C16.1162 4.90726 15.7274 4.51843 15.2581 4.51843ZM20.5944 19.2939H18.905V18.0335H20.5944C20.6078 18.0335 20.6212 18.0335 20.6346 18.0469L20.648 19.2402L20.5944 19.2939ZM18.905 14.8827V13.6223H20.5944C20.6078 13.6223 20.6212 13.6223 20.6346 13.6358L20.648 14.8291L20.5944 14.8827H18.905ZM18.905 10.4581V9.19776H20.5944C20.6078 9.19776 20.6212 9.19776 20.6346 9.21117L20.648 10.4045L20.5944 10.4581H18.905ZM18.905 6.04692V4.78659H20.5944C20.6078 4.78659 20.6212 4.78659 20.6346 4.8L20.648 5.99329L20.5944 6.04692H18.905ZM6.15419 18.0469V19.3073H4.47822C4.46481 19.3073 4.4514 19.3073 4.43799 19.2939L4.42458 18.1006L4.47822 18.0469H6.15419ZM6.15419 13.6223V14.8827H4.47822C4.4514 14.8827 4.43799 14.8827 4.42458 14.8693L4.41118 13.676L4.47822 13.6223H6.15419ZM6.15419 9.19776V10.4581H4.47822C4.4514 10.4581 4.43799 10.4581 4.42458 10.4447L4.41118 9.2514L4.47822 9.19776H6.15419ZM6.15419 4.77318V6.03352H4.46481C4.4514 6.03352 4.43799 6.03352 4.42458 6.02011L4.41118 4.82681L4.47822 4.77318H6.15419ZM7.5352 2.80223H17.5374C17.6983 2.80223 17.8458 2.94972 17.8458 3.11061V20.9564C17.8458 21.1307 17.6983 21.2648 17.5374 21.2648H7.5352C7.3609 21.2648 7.22682 21.1307 7.22682 20.9564V3.11061C7.22682 2.93631 7.37431 2.80223 7.5352 2.80223ZM13.4957 8.19084L10.7 9.08779V10.3601H14.7183V9.39137H13.78L11.8564 9.48521L14.7183 8.51098V7.8707L11.8591 6.89923L13.78 6.99306H14.7183L14.7183 6.0216H10.7V7.29665L13.4957 8.19084ZM13.9677 11.9304V13.2579L14.7183 13.4898V14.5247L10.7 13.0509L10.7 12.1402L14.7183 10.6554V11.6959L13.9677 11.9304ZM13.2197 13.0261V12.1623L11.826 12.5956L13.2197 13.0261ZM13.2998 16.4069V16.9313H14.7183V17.9H10.7V16.3186C10.7 15.8421 10.8058 15.4695 11.0174 15.2009C11.229 14.9322 11.528 14.7979 11.9143 14.7979C12.194 14.7979 12.4258 14.855 12.6098 14.969C12.7938 15.0813 12.9428 15.2579 13.0569 15.4989L14.6769 14.6599H14.7183V15.6976L13.2998 16.4069ZM12.5519 16.9313V16.3186C12.5519 16.1346 12.504 15.9966 12.4083 15.9046C12.3108 15.8108 12.1756 15.7639 12.0026 15.7639C11.8297 15.7639 11.6945 15.8108 11.5969 15.9046C11.4976 15.9985 11.4479 16.1364 11.4479 16.3186V16.9313H12.5519Z" fill="#757575"/>
</svg>
