<svg width="238" height="290" viewBox="0 0 238 290" fill="none" xmlns="http://www.w3.org/2000/svg">
<g clip-path="url(#clip0)">
<path fill-rule="evenodd" clip-rule="evenodd" d="M6557.94 2313.83L6577.78 2293.98L6569.98 2286.17C6573.4 2280.64 6575.87 2274.66 6577.36 2268.32H6588.41V2240.24H6577.36C6575.87 2233.9 6573.4 2227.91 6569.98 2222.39L6577.78 2214.58L6557.94 2194.73L6550.14 2202.53C6544.61 2199.11 6538.63 2196.64 6532.29 2195.15V2184.09H6504.23V2195.14C6497.89 2196.63 6491.91 2199.11 6486.38 2202.53L6478.58 2194.72L6458.74 2214.57L6466.54 2222.38C6463.12 2227.91 6460.65 2233.89 6459.15 2240.24H6448.1V2268.31H6459.14C6460.64 2274.65 6463.11 2280.64 6466.53 2286.16L6458.73 2293.97L6478.57 2313.82L6486.39 2306C6487.41 2306.61 6488.48 2307.22 6489.62 2307.83C6489.63 2307.83 6489.63 2307.83 6489.63 2307.84L6489.63 2307.83L6494.03 2299.58L6499.55 2299.59V2286.58C6488.37 2280.1 6480.84 2268.04 6480.84 2254.19C6480.84 2233.52 6497.59 2216.76 6518.25 2216.76C6538.92 2216.76 6555.67 2233.52 6555.67 2254.19C6555.67 2268.04 6548.13 2280.1 6536.96 2286.58V2299.55L6542.56 2299.55L6547.01 2307.78C6547.02 2307.78 6547.02 2307.78 6547.03 2307.77C6548.12 2307.18 6549.15 2306.59 6550.12 2306.01L6557.94 2313.83ZM6549.37 2299.33L6551.06 2298.31L6557.94 2305.2L6569.15 2293.98L6562.24 2287.07L6564.79 2282.96C6567.86 2277.99 6570.08 2272.62 6571.42 2266.92L6572.53 2262.21H6582.3V2246.35H6572.53L6571.43 2241.64C6570.08 2235.93 6567.86 2230.56 6564.79 2225.6L6562.25 2221.49L6569.15 2214.58L6557.94 2203.36L6551.03 2210.27L6546.93 2207.73C6541.96 2204.65 6536.59 2202.43 6530.89 2201.09L6526.19 2199.98V2190.2H6510.33V2199.98L6505.63 2201.08C6499.92 2202.43 6494.56 2204.65 6489.59 2207.72L6485.49 2210.26L6478.58 2203.36L6467.37 2214.57L6474.27 2221.48L6471.73 2225.59C6468.66 2230.56 6466.44 2235.93 6465.1 2241.63L6463.99 2246.34H6454.21V2262.2H6463.98L6465.09 2266.91C6466.43 2272.62 6468.65 2277.99 6471.72 2282.95L6474.26 2287.06L6467.36 2293.97L6478.57 2305.19L6485.46 2298.3L6487.23 2299.37L6490.37 2293.47L6493.44 2293.48V2289.92C6482.16 2282.07 6474.74 2269.02 6474.74 2254.19C6474.74 2230.15 6494.22 2210.66 6518.25 2210.66C6542.29 2210.66 6561.77 2230.15 6561.77 2254.19C6561.77 2269.02 6554.34 2282.07 6543.06 2289.92V2293.44L6546.2 2293.44L6549.37 2299.33Z" fill="#213AF9" fill-opacity="0.1"/>
<path d="M-6382.52 -2046.03H-6306.24V-1969.71H-6382.52V-2046.03Z" fill="#213AF9" fill-opacity="0.1"/>
<path fill-rule="evenodd" clip-rule="evenodd" d="M6547.26 2285.59L6567.1 2265.75L6559.29 2257.94C6562.71 2252.41 6565.19 2246.43 6566.68 2240.08H6577.73V2212H6566.68C6565.19 2205.66 6562.72 2199.67 6559.3 2194.15L6567.1 2186.34L6547.26 2166.49L6539.46 2174.3C6533.93 2170.88 6527.95 2168.4 6521.61 2166.91V2155.86H6493.55V2166.9C6487.21 2168.4 6481.23 2170.87 6475.7 2174.29L6467.9 2166.49L6448.06 2186.34L6455.86 2194.14C6452.44 2199.67 6449.97 2205.65 6448.47 2212H6437.42V2240.07H6448.47C6449.96 2246.42 6452.43 2252.4 6455.85 2257.93L6448.05 2265.74L6467.89 2285.58L6475.71 2277.76C6476.73 2278.38 6477.8 2278.98 6478.94 2279.6C6478.95 2279.6 6478.95 2279.6 6478.95 2279.6V2279.6L6483.35 2271.35L6488.87 2271.35V2258.34C6477.69 2251.86 6470.16 2239.8 6470.16 2225.96C6470.16 2205.28 6486.91 2188.53 6507.57 2188.53C6528.24 2188.53 6544.99 2205.28 6544.99 2225.96C6544.99 2239.8 6537.45 2251.86 6526.28 2258.34V2271.32L6531.88 2271.31L6536.33 2279.55C6536.34 2279.54 6536.34 2279.54 6536.35 2279.53C6537.44 2278.94 6538.47 2278.35 6539.44 2277.77L6547.26 2285.59ZM6538.69 2271.09L6540.38 2270.07L6547.26 2276.96L6558.47 2265.74L6551.56 2258.83L6554.11 2254.72C6557.18 2249.75 6559.4 2244.39 6560.74 2238.68L6561.85 2233.98H6571.62V2218.11H6561.85L6560.75 2213.4C6559.4 2207.7 6557.18 2202.33 6554.11 2197.36L6551.57 2193.25L6558.47 2186.34L6547.26 2175.12L6540.35 2182.03L6536.25 2179.49C6531.28 2176.42 6525.91 2174.19 6520.21 2172.85L6515.51 2171.74V2161.96H6499.65V2171.74L6494.95 2172.85C6489.24 2174.19 6483.88 2176.41 6478.92 2179.48L6474.81 2182.03L6467.9 2175.12L6456.69 2186.34L6463.59 2193.25L6461.05 2197.36C6457.98 2202.33 6455.76 2207.69 6454.42 2213.4L6453.31 2218.1H6443.52V2233.97H6453.3L6454.41 2238.67C6455.75 2244.38 6457.97 2249.75 6461.04 2254.71L6463.58 2258.82L6456.68 2265.73L6467.89 2276.95L6474.78 2270.06L6476.55 2271.13L6479.69 2265.24L6482.77 2265.24V2261.68C6471.48 2253.84 6464.06 2240.78 6464.06 2225.96C6464.06 2201.91 6483.54 2182.42 6507.57 2182.42C6531.61 2182.42 6551.09 2201.91 6551.09 2225.96C6551.09 2240.78 6543.66 2253.84 6532.38 2261.68V2265.21L6535.52 2265.2L6538.69 2271.09Z" fill="#213AF9" fill-opacity="0.1"/>
<path d="M-6393.2 -2074.26H-6316.92V-1997.95H-6393.2V-2074.26Z" fill="#213AF9" fill-opacity="0.1"/>
<path fill-rule="evenodd" clip-rule="evenodd" d="M6547.26 2358.86L6567.1 2339.01L6559.3 2331.2C6562.71 2325.67 6565.19 2319.69 6566.68 2313.34H6577.73V2285.27H6566.69C6565.19 2278.92 6562.72 2272.94 6559.3 2267.41L6567.1 2259.6L6547.26 2239.76L6539.46 2247.56C6533.93 2244.14 6527.95 2241.66 6521.61 2240.17V2229.12H6493.55V2240.17C6487.21 2241.66 6481.23 2244.13 6475.7 2247.56L6467.9 2239.75L6448.06 2259.6L6455.86 2267.41C6452.44 2272.94 6449.97 2278.92 6448.48 2285.26H6437.42V2313.33H6448.47C6449.96 2319.68 6452.43 2325.66 6455.85 2331.19L6448.05 2339L6467.89 2358.85L6475.71 2351.02C6476.73 2351.64 6477.8 2352.25 6478.94 2352.86C6478.94 2352.86 6478.95 2352.86 6478.95 2352.86L6478.95 2352.86L6483.35 2344.61L6488.87 2344.61V2331.6C6477.69 2325.13 6470.16 2313.06 6470.16 2299.22C6470.16 2278.55 6486.91 2261.79 6507.57 2261.79C6528.24 2261.79 6544.99 2278.55 6544.99 2299.22C6544.99 2313.06 6537.46 2325.13 6526.28 2331.6V2344.58L6531.88 2344.58L6536.33 2352.81C6536.34 2352.81 6536.34 2352.8 6536.35 2352.8C6537.44 2352.21 6538.47 2351.62 6539.44 2351.03L6547.26 2358.86ZM6538.69 2344.35L6540.38 2343.34L6547.26 2350.22L6558.47 2339.01L6551.56 2332.1L6554.1 2327.99C6557.18 2323.02 6559.4 2317.65 6560.74 2311.95L6561.85 2307.24H6571.62V2291.37H6561.85L6560.74 2286.66C6559.4 2280.96 6557.18 2275.59 6554.11 2270.63L6551.57 2266.52L6558.47 2259.6L6547.26 2248.39L6540.35 2255.29L6536.25 2252.75C6531.28 2249.68 6525.92 2247.46 6520.21 2246.11L6515.51 2245.01V2235.23H6499.65V2245L6494.95 2246.11C6489.24 2247.45 6483.88 2249.67 6478.92 2252.75L6474.81 2255.29L6467.9 2248.38L6456.69 2259.6L6463.59 2266.51L6461.05 2270.62C6457.98 2275.59 6455.76 2280.96 6454.42 2286.66L6453.31 2291.37H6443.53V2307.23H6453.3L6454.4 2311.94C6455.75 2317.64 6457.97 2323.01 6461.04 2327.98L6463.58 2332.09L6456.68 2339L6467.89 2350.21L6474.78 2343.32L6476.55 2344.39L6479.69 2338.5L6482.77 2338.5V2334.95C6471.48 2327.1 6464.06 2314.05 6464.06 2299.22C6464.06 2275.18 6483.54 2255.68 6507.57 2255.68C6531.61 2255.68 6551.09 2275.18 6551.09 2299.22C6551.09 2314.05 6543.67 2327.1 6532.39 2334.95V2338.47L6535.52 2338.47L6538.69 2344.35Z" fill="#213AF9" fill-opacity="0.1"/>
<path d="M-6393.2 -2001H-6316.92V-1924.68H-6393.2V-2001Z" fill="#213AF9" fill-opacity="0.1"/>
<path fill-rule="evenodd" clip-rule="evenodd" d="M97.6582 156.653C97.6582 160.817 99.8569 164.448 103.135 166.525C102.64 167.826 102.335 169.22 102.335 170.689C102.335 177.141 107.578 182.386 114.027 182.386H146.765C153.214 182.386 158.457 177.141 158.457 170.689C158.457 169.215 158.152 167.821 157.657 166.525C160.935 164.452 163.134 160.817 163.134 156.653L170.097 162.553L189.937 142.705L182.136 134.896C185.554 129.365 188.028 123.386 189.52 117.042H200.567V88.9639H189.524C188.033 82.6194 185.559 76.6348 182.14 71.1091L189.941 63.3003L170.102 43.4524L162.296 51.2568C156.768 47.8364 150.792 45.3616 144.45 43.8689V32.8174H116.389V43.8643C110.047 45.3567 104.066 47.8318 98.5425 51.2522L90.7373 43.4478L70.8979 63.2954L78.6987 71.1045C75.2803 76.6348 72.8062 82.6145 71.3145 88.959H60.2632V117.032H71.3047C72.7964 123.377 75.271 129.361 78.6899 134.887L70.8887 142.696L90.7275 162.543L97.6582 156.653ZM130.396 60.7361C153.606 60.7361 172.487 79.6245 172.487 102.846C172.487 116.878 165.383 130.039 153.78 137.82V145.194L162.726 143.76L163.711 143.164L170.124 149.579L177.019 142.68L170.566 136.221L174.376 130.057C177.275 125.367 179.369 120.306 180.635 114.922L182.296 107.861H191.439V98.0989H182.3L180.641 91.0383C179.374 85.6519 177.279 80.5876 174.383 75.9065L170.568 69.7415L177.024 63.2795L170.126 56.3792L163.669 62.8352L157.508 59.0232C152.82 56.1228 147.761 54.0276 142.379 52.761L135.322 51.0999V41.9529H125.569V51.095L118.512 52.7563C113.127 54.0234 108.065 56.1189 103.386 59.0166L97.2241 62.8325L90.7646 56.3745L83.8682 63.2749L90.3208 69.7346L86.5103 75.8989C83.6113 80.5881 81.5166 85.6492 80.2505 91.0337L78.5908 98.0942H69.4429V107.852H78.5811L80.2417 114.912C81.5083 120.299 83.603 125.363 86.499 130.044L90.3135 136.209L83.8584 142.671L90.7534 149.57L97.1758 143.145L98.2373 143.788L107.012 145.194V137.82C95.4087 130.039 88.3047 116.878 88.3047 102.846C88.3047 79.6245 107.185 60.7361 130.396 60.7361ZM130.396 70.0938C112.348 70.0938 97.6582 84.79 97.6582 102.846C97.6582 114.473 103.935 125.328 114.032 131.181L116.365 132.533V144.956H125.719V116.021C120.289 114.084 116.365 108.938 116.365 102.846C116.365 95.1069 122.66 88.8091 130.396 88.8091C138.131 88.8091 144.427 95.1069 144.427 102.846C144.427 108.938 140.503 114.084 135.073 116.021V144.956H144.427V132.533L146.76 131.181C156.857 125.328 163.134 114.468 163.134 102.846C163.134 84.79 148.443 70.0938 130.396 70.0938ZM130.396 98.167C127.814 98.167 125.719 100.263 125.719 102.846C125.719 105.428 127.814 107.525 130.396 107.525C132.977 107.525 135.073 105.428 135.073 102.846C135.073 100.263 132.977 98.167 130.396 98.167ZM151.442 154.313H109.35C108.064 154.313 107.012 155.366 107.012 156.653C107.012 157.939 108.064 158.992 109.35 158.992H114.027H146.765H151.442C152.728 158.992 153.78 157.939 153.78 156.653C153.78 155.366 152.728 154.313 151.442 154.313ZM114.027 173.029H146.765C148.051 173.029 149.104 171.976 149.104 170.689C149.104 169.402 148.051 168.35 146.765 168.35H114.027C112.741 168.35 111.688 169.402 111.688 170.689C111.688 171.976 112.741 173.029 114.027 173.029Z" fill="#213AF9" fill-opacity="0.1"/>
<path d="M134.998 191.744H125.645V201.102H134.998V191.744Z" fill="#213AF9" fill-opacity="0.1"/>
<path d="M134.998 210.459H125.645V219.817H134.998V210.459Z" fill="#213AF9" fill-opacity="0.1"/>
<path d="M134.998 229.175H125.645V238.532H134.998V229.175Z" fill="#213AF9" fill-opacity="0.1"/>
<path d="M134.998 247.89H125.645V257.248H134.998V247.89Z" fill="#213AF9" fill-opacity="0.1"/>
</g>
<mask id="mask0" mask-type="alpha" maskUnits="userSpaceOnUse" x="0" y="0" width="238" height="290">
<g clip-path="url(#clip1)">
<path fill-rule="evenodd" clip-rule="evenodd" d="M6557.94 2313.83L6577.78 2293.98L6569.98 2286.17C6573.4 2280.64 6575.87 2274.66 6577.36 2268.32H6588.41V2240.24H6577.36C6575.87 2233.9 6573.4 2227.91 6569.98 2222.39L6577.78 2214.58L6557.94 2194.73L6550.14 2202.53C6544.61 2199.11 6538.63 2196.64 6532.29 2195.15V2184.09H6504.23V2195.14C6497.89 2196.63 6491.91 2199.11 6486.38 2202.53L6478.58 2194.72L6458.74 2214.57L6466.54 2222.38C6463.12 2227.91 6460.65 2233.89 6459.15 2240.24H6448.1V2268.31H6459.14C6460.64 2274.65 6463.11 2280.64 6466.53 2286.16L6458.73 2293.97L6478.57 2313.82L6486.39 2306C6487.41 2306.61 6488.48 2307.22 6489.62 2307.83C6489.63 2307.83 6489.63 2307.83 6489.63 2307.84L6489.63 2307.83L6494.03 2299.58L6499.55 2299.59V2286.58C6488.37 2280.1 6480.84 2268.04 6480.84 2254.19C6480.84 2233.52 6497.59 2216.76 6518.25 2216.76C6538.92 2216.76 6555.67 2233.52 6555.67 2254.19C6555.67 2268.04 6548.13 2280.1 6536.96 2286.58V2299.55L6542.56 2299.55L6547.01 2307.78C6547.02 2307.78 6547.02 2307.78 6547.03 2307.77C6548.12 2307.18 6549.15 2306.59 6550.12 2306.01L6557.94 2313.83ZM6549.37 2299.33L6551.06 2298.31L6557.94 2305.2L6569.15 2293.98L6562.24 2287.07L6564.79 2282.96C6567.86 2277.99 6570.08 2272.62 6571.42 2266.92L6572.53 2262.21H6582.3V2246.35H6572.53L6571.43 2241.64C6570.08 2235.93 6567.86 2230.56 6564.79 2225.6L6562.25 2221.49L6569.15 2214.58L6557.94 2203.36L6551.03 2210.27L6546.93 2207.73C6541.96 2204.65 6536.59 2202.43 6530.89 2201.09L6526.19 2199.98V2190.2H6510.33V2199.98L6505.63 2201.08C6499.92 2202.43 6494.56 2204.65 6489.59 2207.72L6485.49 2210.26L6478.58 2203.36L6467.37 2214.57L6474.27 2221.48L6471.73 2225.59C6468.66 2230.56 6466.44 2235.93 6465.1 2241.63L6463.99 2246.34H6454.21V2262.2H6463.98L6465.09 2266.91C6466.43 2272.62 6468.65 2277.99 6471.72 2282.95L6474.26 2287.06L6467.36 2293.97L6478.57 2305.19L6485.46 2298.3L6487.23 2299.37L6490.37 2293.47L6493.44 2293.48V2289.92C6482.16 2282.07 6474.74 2269.02 6474.74 2254.19C6474.74 2230.15 6494.22 2210.66 6518.25 2210.66C6542.29 2210.66 6561.77 2230.15 6561.77 2254.19C6561.77 2269.02 6554.34 2282.07 6543.06 2289.92V2293.44L6546.2 2293.44L6549.37 2299.33Z" fill="#213AF9"/>
<path d="M-6382.52 -2046.03H-6306.24V-1969.71H-6382.52V-2046.03Z" fill="#213AF9"/>
<path fill-rule="evenodd" clip-rule="evenodd" d="M6547.26 2285.59L6567.1 2265.75L6559.29 2257.94C6562.71 2252.41 6565.19 2246.43 6566.68 2240.08H6577.73V2212H6566.68C6565.19 2205.66 6562.72 2199.67 6559.3 2194.15L6567.1 2186.34L6547.26 2166.49L6539.46 2174.3C6533.93 2170.88 6527.95 2168.4 6521.61 2166.91V2155.86H6493.55V2166.9C6487.21 2168.4 6481.23 2170.87 6475.7 2174.29L6467.9 2166.49L6448.06 2186.34L6455.86 2194.14C6452.44 2199.67 6449.97 2205.65 6448.47 2212H6437.42V2240.07H6448.47C6449.96 2246.42 6452.43 2252.4 6455.85 2257.93L6448.05 2265.74L6467.89 2285.58L6475.71 2277.76C6476.73 2278.38 6477.8 2278.98 6478.94 2279.6C6478.95 2279.6 6478.95 2279.6 6478.95 2279.6V2279.6L6483.35 2271.35L6488.87 2271.35V2258.34C6477.69 2251.86 6470.16 2239.8 6470.16 2225.96C6470.16 2205.28 6486.91 2188.53 6507.57 2188.53C6528.24 2188.53 6544.99 2205.28 6544.99 2225.96C6544.99 2239.8 6537.45 2251.86 6526.28 2258.34V2271.32L6531.88 2271.31L6536.33 2279.55C6536.34 2279.54 6536.34 2279.54 6536.35 2279.53C6537.44 2278.94 6538.47 2278.35 6539.44 2277.77L6547.26 2285.59ZM6538.69 2271.09L6540.38 2270.07L6547.26 2276.96L6558.47 2265.74L6551.56 2258.83L6554.11 2254.72C6557.18 2249.75 6559.4 2244.39 6560.74 2238.68L6561.85 2233.98H6571.62V2218.11H6561.85L6560.75 2213.4C6559.4 2207.7 6557.18 2202.33 6554.11 2197.36L6551.57 2193.25L6558.47 2186.34L6547.26 2175.12L6540.35 2182.03L6536.25 2179.49C6531.28 2176.42 6525.91 2174.19 6520.21 2172.85L6515.51 2171.74V2161.96H6499.65V2171.74L6494.95 2172.85C6489.24 2174.19 6483.88 2176.41 6478.92 2179.48L6474.81 2182.03L6467.9 2175.12L6456.69 2186.34L6463.59 2193.25L6461.05 2197.36C6457.98 2202.33 6455.76 2207.69 6454.42 2213.4L6453.31 2218.1H6443.52V2233.97H6453.3L6454.41 2238.67C6455.75 2244.38 6457.97 2249.75 6461.04 2254.71L6463.58 2258.82L6456.68 2265.73L6467.89 2276.95L6474.78 2270.06L6476.55 2271.13L6479.69 2265.24L6482.77 2265.24V2261.68C6471.48 2253.84 6464.06 2240.78 6464.06 2225.96C6464.06 2201.91 6483.54 2182.42 6507.57 2182.42C6531.61 2182.42 6551.09 2201.91 6551.09 2225.96C6551.09 2240.78 6543.66 2253.84 6532.38 2261.68V2265.21L6535.52 2265.2L6538.69 2271.09Z" fill="#213AF9"/>
<path d="M-6393.2 -2074.26H-6316.92V-1997.95H-6393.2V-2074.26Z" fill="#213AF9"/>
<path fill-rule="evenodd" clip-rule="evenodd" d="M6547.26 2358.86L6567.1 2339.01L6559.3 2331.2C6562.71 2325.67 6565.19 2319.69 6566.68 2313.34H6577.73V2285.27H6566.69C6565.19 2278.92 6562.72 2272.94 6559.3 2267.41L6567.1 2259.6L6547.26 2239.76L6539.46 2247.56C6533.93 2244.14 6527.95 2241.66 6521.61 2240.17V2229.12H6493.55V2240.17C6487.21 2241.66 6481.23 2244.13 6475.7 2247.56L6467.9 2239.75L6448.06 2259.6L6455.86 2267.41C6452.44 2272.94 6449.97 2278.92 6448.48 2285.26H6437.42V2313.33H6448.47C6449.96 2319.68 6452.43 2325.66 6455.85 2331.19L6448.05 2339L6467.89 2358.85L6475.71 2351.02C6476.73 2351.64 6477.8 2352.25 6478.94 2352.86C6478.94 2352.86 6478.95 2352.86 6478.95 2352.86L6478.95 2352.86L6483.35 2344.61L6488.87 2344.61V2331.6C6477.69 2325.13 6470.16 2313.06 6470.16 2299.22C6470.16 2278.55 6486.91 2261.79 6507.57 2261.79C6528.24 2261.79 6544.99 2278.55 6544.99 2299.22C6544.99 2313.06 6537.46 2325.13 6526.28 2331.6V2344.58L6531.88 2344.58L6536.33 2352.81C6536.34 2352.81 6536.34 2352.8 6536.35 2352.8C6537.44 2352.21 6538.47 2351.62 6539.44 2351.03L6547.26 2358.86ZM6538.69 2344.35L6540.38 2343.34L6547.26 2350.22L6558.47 2339.01L6551.56 2332.1L6554.1 2327.99C6557.18 2323.02 6559.4 2317.65 6560.74 2311.95L6561.85 2307.24H6571.62V2291.37H6561.85L6560.74 2286.66C6559.4 2280.96 6557.18 2275.59 6554.11 2270.63L6551.57 2266.52L6558.47 2259.6L6547.26 2248.39L6540.35 2255.29L6536.25 2252.75C6531.28 2249.68 6525.92 2247.46 6520.21 2246.11L6515.51 2245.01V2235.23H6499.65V2245L6494.95 2246.11C6489.24 2247.45 6483.88 2249.67 6478.92 2252.75L6474.81 2255.29L6467.9 2248.38L6456.69 2259.6L6463.59 2266.51L6461.05 2270.62C6457.98 2275.59 6455.76 2280.96 6454.42 2286.66L6453.31 2291.37H6443.53V2307.23H6453.3L6454.4 2311.94C6455.75 2317.64 6457.97 2323.01 6461.04 2327.98L6463.58 2332.09L6456.68 2339L6467.89 2350.21L6474.78 2343.32L6476.55 2344.39L6479.69 2338.5L6482.77 2338.5V2334.95C6471.48 2327.1 6464.06 2314.05 6464.06 2299.22C6464.06 2275.18 6483.54 2255.68 6507.57 2255.68C6531.61 2255.68 6551.09 2275.18 6551.09 2299.22C6551.09 2314.05 6543.67 2327.1 6532.39 2334.95V2338.47L6535.52 2338.47L6538.69 2344.35Z" fill="#213AF9"/>
<path d="M-6393.2 -2001H-6316.92V-1924.68H-6393.2V-2001Z" fill="#213AF9"/>
<path fill-rule="evenodd" clip-rule="evenodd" d="M97.6582 156.653C97.6582 160.817 99.8569 164.448 103.135 166.525C102.64 167.826 102.335 169.22 102.335 170.689C102.335 177.141 107.578 182.386 114.027 182.386H146.765C153.214 182.386 158.457 177.141 158.457 170.689C158.457 169.215 158.152 167.821 157.657 166.525C160.935 164.452 163.134 160.817 163.134 156.653L170.097 162.553L189.937 142.705L182.136 134.896C185.554 129.365 188.028 123.386 189.52 117.042H200.567V88.9639H189.524C188.033 82.6194 185.559 76.6348 182.14 71.1091L189.941 63.3003L170.102 43.4524L162.296 51.2568C156.768 47.8364 150.792 45.3616 144.45 43.8689V32.8174H116.389V43.8643C110.047 45.3567 104.066 47.8318 98.5425 51.2522L90.7373 43.4478L70.8979 63.2954L78.6987 71.1045C75.2803 76.6348 72.8062 82.6145 71.3145 88.959H60.2632V117.032H71.3047C72.7964 123.377 75.271 129.361 78.6899 134.887L70.8887 142.696L90.7275 162.543L97.6582 156.653ZM130.396 60.7361C153.606 60.7361 172.487 79.6245 172.487 102.846C172.487 116.878 165.383 130.039 153.78 137.82V145.194L162.726 143.76L163.711 143.164L170.124 149.579L177.019 142.68L170.566 136.221L174.376 130.057C177.275 125.367 179.369 120.306 180.635 114.922L182.296 107.861H191.439V98.0989H182.3L180.641 91.0383C179.374 85.6519 177.279 80.5876 174.383 75.9065L170.568 69.7415L177.024 63.2795L170.126 56.3792L163.669 62.8352L157.508 59.0232C152.82 56.1228 147.761 54.0276 142.379 52.761L135.322 51.0999V41.9529H125.569V51.095L118.512 52.7563C113.127 54.0234 108.065 56.1189 103.386 59.0166L97.2241 62.8325L90.7646 56.3745L83.8682 63.2749L90.3208 69.7346L86.5103 75.8989C83.6113 80.5881 81.5166 85.6492 80.2505 91.0337L78.5908 98.0942H69.4429V107.852H78.5811L80.2417 114.912C81.5083 120.299 83.603 125.363 86.499 130.044L90.3135 136.209L83.8584 142.671L90.7534 149.57L97.1758 143.145L98.2373 143.788L107.012 145.194V137.82C95.4087 130.039 88.3047 116.878 88.3047 102.846C88.3047 79.6245 107.185 60.7361 130.396 60.7361ZM130.396 70.0938C112.348 70.0938 97.6582 84.79 97.6582 102.846C97.6582 114.473 103.935 125.328 114.032 131.181L116.365 132.533V144.956H125.719V116.021C120.289 114.084 116.365 108.938 116.365 102.846C116.365 95.1069 122.66 88.8091 130.396 88.8091C138.131 88.8091 144.427 95.1069 144.427 102.846C144.427 108.938 140.503 114.084 135.073 116.021V144.956H144.427V132.533L146.76 131.181C156.857 125.328 163.134 114.468 163.134 102.846C163.134 84.79 148.443 70.0938 130.396 70.0938ZM130.396 98.167C127.814 98.167 125.719 100.263 125.719 102.846C125.719 105.428 127.814 107.525 130.396 107.525C132.977 107.525 135.073 105.428 135.073 102.846C135.073 100.263 132.977 98.167 130.396 98.167ZM151.442 154.313H109.35C108.064 154.313 107.012 155.366 107.012 156.653C107.012 157.939 108.064 158.992 109.35 158.992H114.027H146.765H151.442C152.728 158.992 153.78 157.939 153.78 156.653C153.78 155.366 152.728 154.313 151.442 154.313ZM114.027 173.029H146.765C148.051 173.029 149.104 171.976 149.104 170.689C149.104 169.402 148.051 168.35 146.765 168.35H114.027C112.741 168.35 111.688 169.402 111.688 170.689C111.688 171.976 112.741 173.029 114.027 173.029Z" fill="#213AF9"/>
<path d="M134.998 191.744H125.645V201.102H134.998V191.744Z" fill="#213AF9"/>
<path d="M134.998 210.459H125.645V219.817H134.998V210.459Z" fill="#213AF9"/>
<path d="M134.998 229.175H125.645V238.532H134.998V229.175Z" fill="#213AF9"/>
<path d="M134.998 247.89H125.645V257.248H134.998V247.89Z" fill="#213AF9"/>
</g>
</mask>
<g mask="url(#mask0)">
<rect y="145" width="237.894" height="112.4" fill="#213AF9"/>
</g>
<path d="M237.88 107.567C237.88 49.0063 190.274 0.757974 131.763 0.00935771C131.305 0.00467885 130.856 0 130.402 0C79.8789 0 35.7208 36.0038 25.0905 86.0816C22.4621 98.4384 22.1347 111.184 24.1083 123.999L0 176.671L27.513 183.708V247.89H74.2808V290H83.6343V238.533H36.8666V176.671L13.9134 170.949L33.8735 125.707L33.5975 124.079C31.5304 111.885 31.7455 99.7532 34.2429 88.0279C44.0408 41.8523 84.9672 8.73074 131.646 9.36707C185.069 10.0502 228.531 54.1063 228.531 107.572L228.545 124.645C228.531 155.531 206.771 188.918 179.195 210.128L177.17 211.527V290H186.524V216.417C216.586 194.417 237.88 158.28 237.894 124.64L237.88 107.567Z" fill="#213AF9" fill-opacity="0.1"/>
<mask id="mask1" mask-type="alpha" maskUnits="userSpaceOnUse" x="0" y="0" width="238" height="290">
<path d="M237.88 107.567C237.88 49.0063 190.274 0.757974 131.763 0.00935771C131.305 0.00467885 130.856 0 130.402 0C79.8789 0 35.7208 36.0038 25.0905 86.0816C22.4621 98.4384 22.1347 111.184 24.1083 123.999L0 176.671L27.513 183.708V247.89H74.2808V290H83.6343V238.533H36.8666V176.671L13.9134 170.949L33.8735 125.707L33.5975 124.079C31.5304 111.885 31.7455 99.7532 34.2429 88.0279C44.0408 41.8523 84.9672 8.73074 131.646 9.36707C185.069 10.0502 228.531 54.1063 228.531 107.572L228.545 124.645C228.531 155.531 206.771 188.918 179.195 210.128L177.17 211.527V290H186.524V216.417C216.586 194.417 237.88 158.28 237.894 124.64L237.88 107.567Z" fill="#213AF9"/>
</mask>
<g mask="url(#mask1)">
<rect width="237.894" height="145" fill="#213AF9"/>
</g>
<defs>
<clipPath id="clip0">
<rect width="238" height="290" fill="white"/>
</clipPath>
<clipPath id="clip1">
<rect width="238" height="290" fill="white"/>
</clipPath>
</defs>
</svg>
