<svg id="Слой_1" viewBox="-49 141 512 512" xmlns="http://www.w3.org/2000/svg"><style>.st0{fill:#e7e23a}.st1{fill:#d0ca3d}.st2{fill:#b3aa48}.st3{fill:#d0c66a}</style><path class="st0" d="M92.1 425.1c84.4 26.4 231.3 13.2 260.9-124.8-.5-.4-15.7-19.7-24.9-13.3 0 0-4 3.4-5.6 5.5-5.1 7.2-2.8 4-2.8 4C181 435.9 15.2 313.8-3.1 309.2c-17-4.3-31.2-12-33.2-13.1l-3 31.3c11.4 16 57 74.5 131.4 97.7z"/><path class="st1" d="M381.8 333c-.2-9.9-.2-19.1 0-27.9l-28.7-4.8h-.1c-29.6 138-176.5 151.2-260.9 124.8-74.3-23.3-120-81.7-131.3-97.7l-.7 1-8.3 11.7c.5 3.4.9 7.3 1.1 11.5.7 16 75.5 141.7 281.7 116.7 0 0 149.3-20.5 147.2-135.3z"/><path class="st2" d="M-39.8 326.8l3.4-30.6-.4-.2-11.8 27.3s-1.3 7.3.2 16.9l8.3-11.7.3-1.7zm.5.6l3-31.3-3.4 30.6c0 .3.3.5.4.7z"/><path class="st2" d="M-40 328.4l.7-1c-.1-.2-.4-.5-.5-.7l-.2 1.7z"/><path class="st3" d="M353 300.3c.7-3.3 1.4-6.7 2-10.1 4-24.4 8.1-44.1 12.2-60.2-5.8-1.8-11.7-3.4-17.5-5-16.5 59.1-26.2 66.3-26.2 66.3 9.2-6.4 29 8.6 29.5 9z"/><path class="st2" d="M367.2 230c-4.1 16.2-8.2 35.8-12.2 60.2-.6 3.5-1.3 6.8-2 10.1h.1l28.7 4.8c.5-28.5 2.5-51.1 5.3-69-6.6-2-13.3-4.1-19.9-6.1z"/><path class="st0" d="M231.2 536.1c89.3-17.9 215.5-102.7 173.8-242-.7-.1-24-10-29.1.3 0 0-2 5-2.3 7.8-1.1 9-.6 5-.6 5-56.1 194.5-266.4 166.4-285.2 171.4-17.5 4.6-34.1 4.7-36.5 4.7L64.1 513c18.3 8.7 88.5 38.9 167.1 23.1z"/><path class="st1" d="M447.3 309.3c-5.1-8.9-9.6-17.2-13.8-25.1l-28.3 9.8h-.1c41.7 139.3-84.5 224.1-173.8 242-78.6 15.8-148.8-14.4-167-23.2l-.1 1.2-1.8 14.7c2.2 2.8 4.5 6.1 6.7 9.8 8.6 14.1 138.4 90.5 312.3-34.2-.1.2 124.6-92.4 65.9-195z"/><path class="st2" d="M63.4 512.5l-12-29.3h-.5l2.9 30.5s2.4 7.2 8.5 15.1l1.8-14.7-.7-1.6z"/><path class="st2" d="M64.2 512.9l-12.8-29.7 12 29.3.8.4zm-.1 1.2l.1-1.2-.8-.4.7 1.6z"/><path class="st3" d="M405.1 294.1c-1-3.4-2-6.7-3.2-10.2-8.5-24-14.5-43.8-18.8-60.4-6.1 1.3-12.2 2.7-18.3 4.1 14.3 61.5 9.2 72.8 9.2 72.8 5.1-10.2 30.4-6.5 31.1-6.3z"/><path class="st2" d="M383 223.5c4.3 16.6 10.4 36.4 18.8 60.4 1.2 3.4 2.2 6.8 3.2 10.2h.1l28.3-9.8c-13.7-26-23.1-47.4-29.4-64.9-7 1.2-14 2.6-21 4.1z"/></svg>