<svg id="Слой_1" viewBox="-49 141 512 512" xmlns="http://www.w3.org/2000/svg"><style>.st0{fill:#32a357}.st1{fill:#9c252a}.st2{fill:#fff}</style><path class="st0" d="M32.5 492.1l-10.1-.9c.7-8 18.3-187.5 116.4-269.1-1.6-.7-3.2-1.4-4.9-2.1-25-10.7-36.3-21.4-34.5-32.8 2.2-14.3 25.2-21.5 44.2-23.4 19.2-1.9 41.3.9 46.1 14.1 4.1 11.3-5.9 24.9-30.6 41.6-.3.2-.6.4-1 .7 109.1 56.5 203.6 184.5 211.7 226.4l-10 1.9c-7.9-41.1-102.5-167.9-210.8-221.6C50.8 304.6 32.6 490.2 32.5 492.1zM154 173.5c-3 0-6.2.1-9.5.5-20.6 2-34.3 9.2-35.1 14.8-.7 4.4 6.4 12.5 28.4 21.9 3.3 1.4 6.6 2.9 9.9 4.4 1.8-1.4 3.7-2.7 5.6-4 22.2-15 28.3-25.2 26.7-29.7-1.5-4.3-11.3-7.9-26-7.9z"/><path class="st1" d="M46.8 478.5c-4.3 5.6-10.9 9.3-18.5 9.3s-14.3-3.7-18.6-9.3C-24 486.8-49 517.2-49 553.4c0 42.7 34.6 77.3 77.3 77.3 42.7 0 77.3-34.6 77.3-77.3-.1-36.2-25.1-66.6-58.8-74.9zm335.8-46.2c-2.5 6.6-7.9 12-15.2 14.1-7.3 2.1-14.8.4-20.4-3.8-30 17.4-45.6 53.5-35.5 88.3 11.9 41 54.8 64.6 95.8 52.7 41-11.9 64.5-54.8 52.7-95.7-10.2-34.9-42.7-57-77.4-55.6z"/><path class="st2" d="M75.6 522.2c-3.1 2.9-10.9-.6-17.4-7.6-6.5-7.1-9.3-15.1-6.2-17.9 3.1-2.9 10.9.5 17.4 7.6 6.5 7 9.3 15.1 6.2 17.9zM435 473.1c-3.1 2.9-10.9-.5-17.4-7.6-6.5-7.1-9.3-15.1-6.2-18 3.1-2.9 10.9.5 17.4 7.6 6.5 7.1 9.3 15.1 6.2 18z"/></svg>