<svg id="Слой_1" viewBox="-49 141 512 512" xmlns="http://www.w3.org/2000/svg"><style>.st0{fill:#8bbe74}.st1{fill:#a96ca7}.st2{fill:#954896}.st3{fill:#fff}</style><path class="st0" d="M371.7 185.3c14.4 125.1-67.7 111.1-68.6 111.2 0 .1-48.4-64.5 68.6-111.2z"/><path class="st0" d="M463 277.4c-79.4 97.7-126.8 29.1-127.5 28.6 0 0 12.4-79.7 127.5-28.6z"/><path class="st0" d="M462.9 335.4c-88.3 53.5-105.9-12.5-106.3-13.1.1-.1 31.7-58.1 106.3 13.1zM286.8 167c90.5 87.6 18.1 128.9 17.5 129.5 0 0-78.3-19.2-17.5-129.5z"/><path class="st0" d="M385.2 235.9c1.1 65.9-41 54.4-41.5 54.4 0 0-21.8-36.1 41.5-54.4zm-203.6-86.4c76.1 100.3-1.8 130.1-2.4 130.7-.1 0-74.6-31 2.4-130.7z"/><path class="st0" d="M307 182.4c-18.7 124.5-94.4 89.6-95.2 89.5 0 0-29.8-75 95.2-89.5z"/><path class="st0" d="M336.5 232.3c-48.8 90.9-97.6 43.1-98.2 42.8 0 0-2.4-66.1 98.2-42.8zM99.2 177c122.5 29.4 81.1 101.7 81 102.6-.1 0-77.3 23.2-81-102.6z"/><path class="st0" d="M218.9 186.2c34.4 56.2-7.6 67.7-8 67.9 0 0-37.2-19.9 8-67.9z"/><path class="st1" d="M340.7 331c0 29.3-25.5 53-56.9 53s-56.9-23.7-56.9-53 25.5-53 56.9-53 56.9 23.7 56.9 53z"/><path class="st2" d="M359.8 479.3c0 29.3-25.5 53-56.9 53s-56.9-23.7-56.9-53 25.5-53 56.9-53 56.9 23.7 56.9 53z"/><path class="st1" d="M183 320.3c0 29.3-25.5 53-56.9 53s-56.9-23.7-56.9-53 25.5-53 56.9-53 56.9 23.7 56.9 53z"/><path class="st1" d="M222.4 302.3c0 29.3-25.5 53-56.9 53s-56.9-23.7-56.9-53 25.5-53 56.9-53 56.9 23.7 56.9 53zm118.3 40c0 29.3-25.5 53-56.9 53s-56.9-23.7-56.9-53 25.5-53 56.9-53 56.9 23.7 56.9 53z"/><path class="st1" d="M302.9 426.3c0 29.3-25.5 53-56.9 53s-56.9-23.7-56.9-53 25.5-53 56.9-53 56.9 23.7 56.9 53z"/><path class="st2" d="M283.8 289.3c0 29.3-25.5 53-56.9 53s-56.9-23.7-56.9-53 25.5-53 56.9-53 56.9 23.7 56.9 53z"/><path class="st2" d="M239.9 373.3c0 29.3-25.5 53-56.9 53s-56.9-23.7-56.9-53 25.5-53 56.9-53 56.9 23.7 56.9 53zm-44 181c0 29.3-25.5 53-56.9 53s-56.9-23.7-56.9-53 25.5-53 56.9-53c31.5 0 56.9 23.7 56.9 53z"/><path class="st1" d="M283.8 493.5c0 29.3-25.5 53-56.9 53s-56.9-23.7-56.9-53 25.5-53 56.9-53 56.9 23.8 56.9 53z"/><path class="st2" d="M397.6 408.2c0 29.3-25.5 53-56.9 53s-56.9-23.7-56.9-53 25.5-53 56.9-53 56.9 23.8 56.9 53zM47.8 599.4c0 24.9-21.7 45.1-48.4 45.1S-49 624.3-49 599.4c0-24.9 21.7-45.1 48.4-45.1s48.4 20.2 48.4 45.1z"/><path class="st2" d="M395.5 307.6c6.6 28.5-12.9 57.4-43.6 64.4-30.6 7-60.7-10.4-67.3-38.9-6.6-28.5 13-57.4 43.6-64.4 30.6-7.1 60.7 10.3 67.3 38.9z"/><path class="st1" d="M159.7 408.2c0 29.3-25.5 53-56.9 53s-56.9-23.7-56.9-53 25.5-53 56.9-53 56.9 23.8 56.9 53z"/><path class="st1" d="M126.1 493.5c0 29.3-25.5 53-56.9 53s-56.9-23.7-56.9-53 25.5-53 56.9-53c31.5 0 56.9 23.8 56.9 53z"/><path class="st2" d="M113.2 569.8c0 29.3-25.5 53-56.9 53s-56.9-23.7-56.9-53 25.5-53 56.9-53 56.9 23.7 56.9 53zm103.4-106c0 29.3-25.5 53-56.9 53s-56.9-23.7-56.9-53 25.5-53 56.9-53 56.9 23.7 56.9 53z"/><path class="st3" d="M266 271.8c-2.8 4.5-12.2 3.6-20.9-2-8.8-5.5-13.6-13.7-10.7-18.1 2.8-4.5 12.2-3.6 21 1.9 8.6 5.6 13.4 13.8 10.6 18.2z"/></svg>