<svg id="Слой_1" viewBox="0 0 512 512" xmlns="http://www.w3.org/2000/svg"><style>.st0{fill:#473421}.st1{fill:#594f75}.st2{fill:#4d4667}.st3{fill:#fff}</style><path class="st0" d="M237.8 114.2l-9.5-.3c0-.9 2.5-89.6-36.1-105.1l3.5-8.8c44.7 17.9 42.2 110.3 42.1 114.2z" id="XMLID_4_"/><path class="st1" d="M232.3 511.8c.8 0 1.5.2 2.3.2 86.5 0 156.6-92.7 156.6-207.1 0-114.3-70.1-207.1-156.6-207.1-.6 0-1.1.1-1.6.1-68.3 88.4-159.5 259.9-.7 413.9z" id="XMLID_3_"/><path class="st2" d="M78 304.9c0 113.3 68.9 205.3 154.3 206.9-158.8-154-67.6-325.5.7-413.8-85.8 1.2-155 93.3-155 206.9z" id="XMLID_2_"/><path class="st3" d="M329.7 184.3c-6.1 6.5-24.5-.8-41-16.4-16.6-15.5-25-33.4-18.9-39.9 6.1-6.5 24.5.8 41 16.4 16.5 15.6 25 33.4 18.9 39.9z" id="XMLID_1_"/></svg>