<svg id="Слой_1" viewBox="-49 141 512 512" xmlns="http://www.w3.org/2000/svg"><style>.st0{fill:#cb2b3b}.st1{fill:#709047}.st2{fill:#f2efd4}.st3{fill:#457842}.st4{fill:#5c151a}</style><path class="st0" d="M199 441.8c112.8 3.5 208.3-76.8 228-184.5H-15.2C3.5 359.5 91 438.5 199 441.8zm192.7-169.2l.3-.3c15.6 16.6 6.3 29.5 1.1 33.9-.2-.1-.5-.2-.7-.4-5.6-3.3-16.1-13.8-.7-33.2zm-46.6 53.2l.3-.3c15.6 16.6 6.3 29.5 1.1 33.9-.2-.1-.5-.2-.7-.4-5.5-3.3-16-13.8-.7-33.2zm-60.6 47.7l.3-.3c15.6 16.6 6.3 29.5 1.1 33.9-.2-.1-.5-.2-.7-.4-5.5-3.3-16-13.8-.7-33.2zm-40.1-100.8c.1-.1.1-.2.2-.3 15.6 10.1 10.8 22.2 7.6 26.7-.2-.1-.4-.1-.6-.2-5.2-1.5-15.6-7.8-7.2-26.2zm-38.1 6l.3-.3c12.7 13.5 5.2 24.1.9 27.7l-.6-.3c-4.6-2.6-13.1-11.2-.6-27.1zm-.7 111.7c.2-.1.2-.2.3-.3 15.6 16.6 6.3 29.5 1.1 33.9-.2-.1-.5-.2-.7-.4-5.6-3.3-16.1-13.8-.7-33.2zm-38.1-118.1c0 .1.1.2.2.3 8.4 18.4-2 24.7-7.1 26.2-.2.1-.4.1-.6.2-3.3-4.5-8.1-16.6 7.5-26.7zm-55.2 101.2c.2-.1.2-.2.3-.3 15.6 16.6 6.3 29.5 1.1 33.9-.2-.1-.5-.2-.7-.4-5.5-3.3-16-13.8-.7-33.2zm-56.7-47.7c.2-.1.2-.2.3-.3 15.6 16.6 6.3 29.5 1.1 33.9-.2-.1-.5-.2-.7-.4-5.6-3.3-16-13.8-.7-33.2zm-36.2-19.6c-.2-.1-.5-.2-.7-.4-5.6-3.3-16.1-13.8-.8-33.2l.3-.3c15.6 16.6 6.4 29.5 1.2 33.9z"/><path class="st1" d="M35.8 389.1l9.2 9.1.8-.8h.2c38.7 36.5 89.8 60 146.6 63.3v.3l12.9.4v-.3c118.4.4 217.6-88.1 232.4-203.9h-5.2C415.3 370.4 316.3 455.5 199 451.9 86.6 448.4-4.1 364.6-20.4 257.3h-5.1c6.4 50.3 28.5 95.9 62 131.2l-.7.6z"/><path class="st2" d="M199 451.9c117.2 3.6 216.3-81.5 233.5-194.6h-5.4c-19.7 107.8-115.2 188-228 184.5C91 438.5 3.5 359.5-15.2 257.3h-5.2C-4.1 364.6 86.6 448.4 199 451.9z"/><path class="st3" d="M437.8 257.3c-14.9 115.8-114 204.3-232.4 203.9v.4h-.1l-13-.4v-.3c-56.8-3.3-107.9-26.8-146.5-63.3l-.8.8h-.1l-9.2-9.2.7-.7c-33.5-35.2-55.6-80.9-62-131.2H-50c14.4 125 118.6 223.9 248.1 227.9 135 4.1 248.8-96.2 263.9-227.9h-24.2z"/><path class="st1" d="M35.7 389.1l9.2 9.2-9.2-9.2.8-.7c-33.5-35.2-55.6-80.9-62-131.2h-.1c6.4 50.3 28.5 95.9 62 131.2l-.7.7zm156.7 71.7c-56.8-3.3-107.9-26.8-146.6-63.3h-.1c38.7 36.5 89.8 60 146.7 63.3l-.1.3 13 .4-12.9-.4v-.3z"/><path class="st4" d="M206.3 423.6c.2.1.5.2.7.4 5.2-4.4 14.4-17.4-1.1-33.9l-.3.3c-15.4 19.4-4.9 29.9.7 33.2zm79-16.9c.2.1.5.2.7.4 5.2-4.4 14.4-17.4-1.1-33.9l-.3.3c-15.4 19.4-4.9 29.9.7 33.2zm-172.2 0c.2.1.5.2.7.4 5.2-4.4 14.4-17.4-1.1-33.9l-.3.3c-15.4 19.4-4.9 29.9.7 33.2zM56.4 359c.2.1.5.2.7.4 5.2-4.4 14.4-17.4-1.1-33.9l-.3.3c-15.4 19.4-5 29.9.7 33.2zm-38.5-86.4c-15.3 19.4-4.9 29.9.8 33.2.2.1.5.2.7.4 5.2-4.4 14.4-17.4-1.1-33.9-.2.1-.2.2-.4.3zm374.5 33.2c.2.1.5.2.7.4 5.2-4.4 14.4-17.4-1.1-33.9l-.3.3c-15.4 19.4-4.9 29.9.7 33.2zM345.9 359c.2.1.5.2.7.4 5.2-4.4 14.4-17.4-1.1-33.9l-.3.3c-15.4 19.4-4.9 29.9.7 33.2zm-139-53.1l.6.3c4.2-3.6 11.8-14.2-.9-27.7l-.3.3c-12.5 15.8-4 24.4.6 27.1zm44.6-7c.2.1.4.1.6.2 3.2-4.5 8-16.6-7.6-26.7-.1.1-.1.2-.2.3-8.3 18.4 2.1 24.7 7.2 26.2zm-90.9 0c5.1-1.5 15.5-7.8 7.1-26.2-.1-.1-.2-.2-.2-.3-15.6 10.1-10.8 22.2-7.6 26.7.2-.1.4-.2.7-.2z"/></svg>